<svg id="Layer_1" enable-background="new 0 0 511.963 511.963" height="512" viewBox="0 0 511.963 511.963" width="512" xmlns="http://www.w3.org/2000/svg"><g><path d="m171.737 151.112c.226.226.425.467.635.702 48.283-38.029 116.8-37.9 164.948.384.195-.218.379-.441.588-.65l87.691-87.692c-96.826-85.593-243.13-85.121-339.809 1.307z"/><path d="m448.106 86.364-87.691 87.692c-.242.242-.501.458-.754.682 37.52 48.094 37.389 116.021-.385 163.981.236.21.477.409.703.635l86.82 86.82c86.428-96.68 86.9-242.984 1.307-339.81z"/><path d="m149.228 339.354c.226-.226.467-.426.703-.635-37.902-48.121-37.902-116.343-.001-164.464-.235-.209-.476-.409-.702-.635l-85.829-85.83c-84.528 96.533-84.55 241.182.046 337.345z"/><path d="m337.47 361.862c-.226-.226-.426-.467-.635-.703-48.122 37.901-116.342 37.901-164.464 0-.209.236-.409.477-.635.703l-85.838 85.837c96.158 85.415 241.43 85.664 338.273.864z"/></g></svg>